<svg width="353" height="141" viewBox="0 0 353 141" fill="none" xmlns="http://www.w3.org/2000/svg">
<path d="M35.318 79.7715C34.9978 77.2789 34.6575 71.9619 37.0994 65.9916C38.1503 63.4286 41.2427 57.0061 48.5686 52.9053C50.41 51.87 56.2647 48.8849 64.0809 49.7493C70.436 50.4428 74.8295 53.3274 76.6909 54.7044C78.5424 56.0713 82.6757 59.5289 85.2177 65.5896C87.3294 70.6452 87.3494 75.1481 87.1793 77.5302C86.839 82.4752 85.1677 86.184 84.0968 88.1942" fill="white"/>
<path d="M61.0485 2.13774C72.8979 2.00707 81.6248 3.32375 83.9567 3.68559C87.8698 4.30875 90.662 4.94196 91.7729 5.20328C94.8253 5.9169 99.3289 6.99236 104.813 9.26388C106.825 10.0981 109.327 11.1434 112.399 12.9928C116.292 15.3447 118.274 17.2846 119.025 18.0585C121.036 20.129 121.937 21.6969 122.407 22.6417C123.298 24.4308 123.548 25.8279 123.638 26.3304C123.788 27.235 123.808 28.0089 123.788 28.5818C123.788 33.2656 123.768 37.9594 123.768 42.6432C123.768 43.2261 123.738 61.4686 123.738 61.5189C123.738 62.6144 123.708 80.1835 123.708 81.3193C123.748 82.2943 123.748 83.6511 123.588 85.2392C123.358 87.5208 122.918 89.1993 122.557 90.5662C122.407 91.1391 121.817 93.3001 120.626 96.2249C120.196 97.2903 118.915 100.346 116.693 104.105C116.322 104.738 114.671 107.502 112.009 110.95C111.108 112.126 108.656 115.221 104.953 118.87C98.7184 125.011 92.9739 128.72 90.652 130.147C86.5488 132.67 83.3062 134.147 82.5656 134.479C76.6409 137.132 72.1173 138.097 70.6261 138.389C67.8539 138.931 65.9424 139.052 64.8915 139.092C64.4212 139.112 62.5797 139.173 60.0977 138.942C59.177 138.851 57.0453 138.63 53.8027 137.856C49.2291 136.76 45.7263 135.373 44.2151 134.74C38.9409 132.539 35.268 130.167 33.0062 128.69C31.8452 127.936 28.5026 125.704 24.5394 122.287C23.4986 121.393 21.0066 119.201 18.0543 116.066C16.1127 114.005 13.8709 111.623 11.459 108.196C11.459 108.196 6.33493 100.939 3.10236 90.8074C2.50188 88.9178 2.18163 87.169 2.18163 87.169C1.59116 83.8421 1.87138 80.3142 1.87138 76.9471C1.87138 73.6102 1.87138 70.2632 1.87138 66.9263C1.87138 66.4238 1.87138 65.9112 1.87138 65.4086C1.87138 61.5591 1.87138 46.0002 1.87138 42.1406C1.87138 37.7081 1.87138 33.2656 1.87138 28.8331C1.84136 27.9989 1.87138 26.8229 2.20164 25.466C2.2717 25.1846 2.50188 24.2599 3.05232 23.0639C3.64279 21.7773 4.42341 20.5511 5.61436 19.1641C6.20483 18.4806 8.02628 16.4403 11.5891 14.0381C14.1411 12.3194 16.2328 11.3243 18.0543 10.47C21.6671 8.77138 24.5494 7.83664 26.7812 7.12302C31.0146 5.77619 34.3172 5.07262 36.519 4.62033C37.7599 4.359 41.1126 3.68559 45.6562 3.12273C47.4076 2.90161 53.1722 2.21814 61.0385 2.12769L61.0485 2.13774Z" stroke="white" stroke-width="3" stroke-miterlimit="10" stroke-linecap="round"/>
<path d="M25.7605 103.14C36.499 104.467 46.9774 102.245 56.2848 96.7073C49.5995 105.884 35.5583 108.819 25.7605 103.14Z" fill="white"/>
<path d="M81.6948 119.453C90.0715 120.056 98.5783 118.699 106.304 115.563C108.256 114.829 109.267 117.814 107.265 118.418C98.9185 120.699 90.1315 121.071 81.6948 119.453Z" fill="white"/>
<path d="M93.7344 127.725C93.0539 127.855 92.1231 128.036 91.0122 128.217C86.6187 128.951 83.186 129.202 81.8049 129.293C78.102 129.524 75.0295 129.494 72.9078 129.413C71.0263 129.343 68.3442 129.232 64.8514 128.71C62.9199 128.418 61.4187 128.187 59.4671 127.604C57.0852 126.88 55.2038 126.247 53.6025 125.101L53.2622 124.89C55.0837 123.182 57.8859 120.87 61.6889 118.779C64.261 117.372 66.3126 116.598 68.9547 115.613C70.656 114.98 74.7493 113.513 80.2837 112.266C82.0251 111.874 86.1083 111.01 91.5026 110.487C96.957 109.954 100.049 109.995 103.902 110.547C106.635 110.939 108.596 111.844 110.428 112.889" stroke="white" stroke-width="3" stroke-miterlimit="10" stroke-linecap="round"/>
<path d="M1.96141 85.7518C2.22162 82.5254 2.90216 77.912 3.98302 73.7408C4.45339 71.9116 5.29406 68.7455 6.94538 64.9663C11.0286 55.5888 16.8833 49.8296 18.5046 48.2918C21.8773 45.0956 25.0098 43.0653 26.8512 41.7385C28.3924 40.6229 30.2639 39.668 34.4973 37.4568C35.0377 37.1754 37.2095 36.3512 41.663 34.7933C42.1934 34.6124 43.5145 34.4114 44.4352 34.8134C45.1858 35.1451 45.7463 35.5974 46.2967 37.2257C47.1674 39.7987 47.6678 40.3013 48.7987 40.9948C50.1297 41.8089 51.6209 41.5275 52.4116 41.4471C53.3323 41.3566 54.3831 41.1656 54.3831 41.1656C56.705 40.7636 59.6073 40.4822 62.0993 40.5525C69.4451 40.7535 75.7401 43.8693 75.7401 43.8693C86.6988 48.9853 91.7028 58.1317 92.7737 60.3228C94.6452 64.1321 95.4858 67.6098 95.8962 70.022C95.9262 70.1929 96.3865 72.595 98.5182 73.4293C98.6283 73.4695 100.2 74.173 101.891 73.3187C102.471 73.0272 103.212 72.4242 103.212 72.4242C103.933 71.8412 104.593 71.1678 105.264 70.5145C106.685 69.1274 108.066 67.7002 109.447 66.273C110.278 65.4086 111.128 64.5643 111.889 63.6396C112.549 62.8456 113.28 61.9913 113.89 61.157C115.482 58.9961 116.883 56.7849 118.354 54.5435C118.704 54.0108 119.055 53.468 119.405 52.9253C119.755 52.3825 120.426 51.4679 120.446 50.1814C120.456 49.3069 120.155 48.5732 119.565 47.156C119.035 45.8896 118.534 44.985 118.484 44.8845C116.553 41.4069 114.741 38.8338 114.741 38.8338C113.53 37.1151 112.029 34.8134 109.617 32.0997C108.716 31.0845 105.624 27.6169 100.81 23.8076C98.3681 21.8778 94.2348 18.9429 88.4302 16.1287C86.7088 15.2944 80.8842 12.6209 72.6977 11.0831C62.9499 9.2538 54.6333 9.86691 48.4984 11.0831C47.4176 11.2941 46.3868 11.6861 45.2759 13.2742C44.185 14.8421 44.145 16.4905 44.165 16.9629C44.165 16.9629 44.3351 18.2293 43.6846 19.3148C43.0541 20.3702 41.9532 20.732 40.7223 21.0637C35.9184 22.0989 29.4233 23.9282 22.5078 27.7978C12.5298 33.3862 5.4642 41.4069 1.88135 46.0504" stroke="white" stroke-width="3" stroke-miterlimit="10" stroke-linecap="round"/>
<path d="M3.823 92.9382C4.3234 91.1692 5.37423 89.5812 6.70529 88.1338C8.92706 85.7216 11.4391 84.6763 13.2905 83.9928C21.5471 80.9373 29.8837 80.1333 29.8837 80.1333C33.2664 79.8116 39.5614 79.2387 47.5078 80.4549C53.4425 81.3595 58.4565 82.9877 60.1678 83.5606C62.4396 84.3245 62.86 84.5858 64.9817 85.2592C65.9624 85.5708 70.6061 86.9981 76.8611 87.7318C80.2438 88.1238 87.4996 88.7168 96.5868 87.2393C99.4091 86.787 105.984 85.6713 112.399 82.656C113.961 81.9223 116.993 80.4649 120.396 77.7411C121.617 76.7561 123.048 75.3791 123.718 74.7258" stroke="white" stroke-width="3" stroke-miterlimit="10" stroke-linecap="round"/>
<path d="M14.2112 111.814C18.0342 113.955 22.5778 115.885 27.6118 116.588C31.1246 117.071 36.649 117.302 42.864 115.342C47.968 113.744 51.3207 111.362 52.1814 110.749C56.1746 107.844 58.3663 104.768 58.8567 104.065C60.1077 102.266 60.9284 100.607 61.4588 99.3709C69.5652 102.185 76.6108 103.06 81.5448 103.311C87.5095 103.612 92.2933 103.1 95.0355 102.708C98.8986 102.155 104.203 101.361 110.498 98.5969C115.332 96.4762 118.264 94.7474 122.347 91.2698" stroke="white" stroke-width="3" stroke-miterlimit="10" stroke-linecap="round"/>
<path d="M113.74 61.3682C112.86 58.4937 111.358 54.222 109.047 50.0508C104.483 41.809 98.9586 36.683 96.3665 34.4819C93.9146 32.3913 87.2093 27.0542 76.9611 23.7776C71.9471 22.1795 67.5436 21.5463 64.3511 21.2749" stroke="white" stroke-width="3" stroke-miterlimit="10" stroke-linecap="round"/>
<path d="M105.504 70.2933C104.963 66.1322 103.212 57.0461 97.1472 48.7139C95.4258 46.3519 89.2609 38.3714 77.9219 33.6374C71.9471 31.1448 66.5929 30.401 63.0601 30.1899" stroke="white" stroke-width="3" stroke-miterlimit="10" stroke-linecap="round"/>
<path d="M149.209 52.7039C149.209 48.4423 146.857 45.0953 146.857 39.7784C146.857 29.9385 154.763 23.5059 165.612 23.5059V31.1848C159.407 31.3858 155.163 34.5318 155.163 40.5021C155.163 44.7637 157.515 48.181 157.515 53.5583C157.515 63.3379 149.679 69.7001 137.589 69.7001V62.0212C144.515 61.9508 149.219 58.9355 149.219 52.7039H149.209Z" fill="white" stroke="white" stroke-miterlimit="10"/>
<path d="M168.154 46.6031C168.154 32.8936 178.862 22.5913 193.434 22.5913C208.005 22.5913 218.784 32.8936 218.784 46.6031C218.784 60.3126 208.005 70.6149 193.434 70.6149C178.862 70.6149 168.154 60.3126 168.154 46.6031ZM193.434 63.0063C203.432 63.0063 210.417 56.3123 210.417 46.6031C210.417 36.8938 203.432 30.1999 193.434 30.1999C183.436 30.1999 176.51 36.8235 176.51 46.6031C176.51 56.3827 183.436 63.0063 193.434 63.0063Z" fill="white" stroke="white" stroke-miterlimit="10"/>
<path d="M226.88 68.263V23.6467H234.847V62.6847C237.399 63.0767 240.071 63.338 242.623 63.338C246.936 63.338 251.77 62.6847 255.103 61.5691L256.994 68.5243C253.011 69.841 247.787 70.625 242.493 70.625C237.199 70.625 231.064 69.7706 226.88 68.263Z" fill="white" stroke="white" stroke-miterlimit="10"/>
<path d="M138.3 79.3692C138.3 79.0375 138.52 78.8164 138.85 78.8164C139.07 78.8164 139.181 78.8767 139.341 79.0375L164.13 108.738V79.3692C164.13 79.0375 164.351 78.8164 164.681 78.8164C165.011 78.8164 165.231 79.0375 165.231 79.3692V117.462C165.231 117.794 165.011 118.015 164.681 118.015C164.351 118.015 164.13 117.794 164.13 117.462V110.457L139.401 80.8065V117.462C139.401 117.794 139.181 118.015 138.85 118.015C138.52 118.015 138.3 117.794 138.3 117.462V79.3692Z" fill="#0000FF" stroke="white" stroke-width="2" stroke-miterlimit="10"/>
<path d="M199.609 109.231C197.517 114.588 192.463 118.287 186.418 118.287C178.502 118.287 172.127 111.824 172.127 103.662C172.127 95.5011 178.502 89.0383 186.418 89.0383C192.463 89.0383 197.517 92.7371 199.609 98.0943V89.8726C199.609 89.5409 199.829 89.3198 200.159 89.3198C200.489 89.3198 200.709 89.5409 200.709 89.8726V117.473C200.709 117.804 200.489 118.025 200.159 118.025C199.829 118.025 199.609 117.804 199.609 117.473V109.251V109.231ZM199.609 104.266V103.11C199.328 95.7725 193.564 90.0233 186.418 90.0233C179.272 90.0233 173.228 96.0439 173.228 103.662C173.228 111.281 179.112 117.302 186.418 117.302C193.724 117.302 199.338 111.613 199.609 104.276V104.266Z" fill="#008000" stroke="white" stroke-width="2" stroke-miterlimit="10"/>
<path d="M207.595 103.662C207.595 95.4911 213.97 89.0383 221.886 89.0383C226.45 89.0383 230.243 91.0787 232.935 94.2849C233.045 94.3955 233.155 94.6166 233.155 94.7774C233.155 95.0589 232.935 95.2699 232.605 95.2699C232.495 95.2699 232.335 95.2096 232.165 95.0488C229.743 91.9531 226.12 90.0233 221.886 90.0233C214.581 90.0233 208.696 96.0439 208.696 103.662C208.696 111.281 214.581 117.302 221.886 117.302C226.12 117.302 229.743 115.372 232.165 112.276C232.335 112.115 232.495 112.055 232.605 112.055C232.935 112.055 233.155 112.276 233.155 112.548C233.155 112.718 233.045 112.929 232.935 113.04C230.243 116.246 226.45 118.287 221.886 118.287C213.97 118.287 207.595 111.824 207.595 103.662Z" fill="#008000" stroke="white" stroke-width="2" stroke-miterlimit="10"/>
<path d="M239.76 83.6207C239.76 83.0177 240.261 82.5151 240.861 82.5151C241.462 82.5151 241.962 83.0076 241.962 83.6207C241.962 84.2339 241.462 84.7264 240.861 84.7264C240.261 84.7264 239.76 84.2339 239.76 83.6207ZM240.311 89.8624C240.311 89.5307 240.531 89.3096 240.861 89.3096C241.192 89.3096 241.412 89.5307 241.412 89.8624V117.462C241.412 117.794 241.192 118.015 240.861 118.015C240.531 118.015 240.311 117.794 240.311 117.462V89.8624Z" fill="#008000" stroke="white" stroke-width="2" stroke-miterlimit="10"/>
<path d="M248.287 103.662C248.287 95.4911 254.662 89.0383 262.579 89.0383C266.092 89.0383 269.394 90.2545 272.196 92.7873C272.306 92.8979 272.417 93.0688 272.417 93.2798C272.417 93.4407 272.356 93.5613 272.086 93.8829L259.556 108.839C259.446 108.949 259.336 109.06 259.116 109.06C258.846 109.06 258.626 108.839 258.626 108.567C258.626 108.457 258.676 108.286 258.796 108.185L271.276 93.3301C268.744 91.0686 265.671 90.0233 262.589 90.0233C255.283 90.0233 249.398 96.0439 249.398 103.662C249.398 111.281 255.283 117.302 262.589 117.302C266.822 117.302 270.445 115.372 272.867 112.276C273.037 112.115 273.197 112.055 273.307 112.055C273.638 112.055 273.858 112.276 273.858 112.548C273.858 112.718 273.748 112.929 273.638 113.04C270.945 116.246 267.152 118.287 262.589 118.287C254.672 118.287 248.297 111.824 248.297 103.662H248.287Z" fill="#008000" stroke="white" stroke-width="2" stroke-miterlimit="10"/>
<path d="M280.733 101.612C280.733 93.3902 285.847 89.0281 292.222 89.0281C298.597 89.0281 303.711 93.3902 303.711 101.612V117.452C303.711 117.784 303.491 118.005 303.161 118.005C302.831 118.005 302.611 117.784 302.611 117.452V101.612C302.611 93.943 298.047 90.0231 292.222 90.0231C286.398 90.0231 281.834 93.943 281.834 101.612V117.452C281.834 117.784 281.614 118.005 281.284 118.005C280.953 118.005 280.733 117.784 280.733 117.452V101.612Z" fill="#008000" stroke="white" stroke-width="2" stroke-miterlimit="10"/>
<path d="M306.754 90.0734C306.754 89.792 306.974 89.5809 307.244 89.5809H312.028V82.9573C312.028 82.6257 312.248 82.4045 312.579 82.4045C312.909 82.4045 313.129 82.6257 313.129 82.9573V89.5809H321.926C322.206 89.5809 322.426 89.8021 322.426 90.0734C322.426 90.3448 322.206 90.5659 321.926 90.5659H313.129V108.014C313.129 113.643 316.372 117.01 321.926 117.01C322.146 117.01 322.426 117.231 322.426 117.503C322.426 117.774 322.206 117.995 321.926 117.995C315.771 117.995 312.038 114.186 312.038 108.004V90.576H307.254C306.984 90.576 306.764 90.3549 306.764 90.0835L306.754 90.0734Z" fill="#008000" stroke="white" stroke-width="2" stroke-miterlimit="10"/>
<path d="M325.729 103.662C325.729 95.4911 332.104 89.0383 340.02 89.0383C343.533 89.0383 346.836 90.2545 349.638 92.7873C349.748 92.8979 349.858 93.0688 349.858 93.2798C349.858 93.4407 349.798 93.5613 349.528 93.8829L336.998 108.839C336.888 108.949 336.778 109.06 336.558 109.06C336.287 109.06 336.067 108.839 336.067 108.567C336.067 108.457 336.117 108.286 336.237 108.185L348.717 93.3301C346.185 91.0686 343.113 90.0233 340.03 90.0233C332.725 90.0233 326.84 96.0439 326.84 103.662C326.84 111.281 332.725 117.302 340.03 117.302C344.264 117.302 347.887 115.372 350.309 112.276C350.479 112.115 350.639 112.055 350.749 112.055C351.079 112.055 351.299 112.276 351.299 112.548C351.299 112.718 351.189 112.929 351.079 113.04C348.387 116.246 344.594 118.287 340.03 118.287C332.114 118.287 325.739 111.824 325.739 103.662H325.729Z" fill="#008000" stroke="white" stroke-width="2" stroke-miterlimit="10"/>
</svg>